<svg width="94" height="94" viewBox="0 0 94 94" fill="none" xmlns="http://www.w3.org/2000/svg">
<circle cx="47" cy="47" r="47" fill="white"/>
<g clip-path="url(#clip0_105_1268)">
<path d="M72.2964 34.8936L50.9889 26.9147C50.7446 26.8227 50.4738 26.8227 50.2294 26.9147L28.9213 34.8936C28.9198 34.8942 28.2388 35.1138 28.2178 35.9083V50.0122C24.1333 50.6577 21 54.2019 21 58.4651C21 63.1847 24.8393 67.0239 29.5588 67.0239C32.8008 67.0239 35.6276 65.2121 37.0798 62.5479L50.2558 67.0953C50.2851 67.106 50.6023 67.223 50.962 67.0953L72.2701 59.7411C72.707 59.5903 73 59.1793 73 58.7171V35.9084C72.9797 35.1114 72.2979 34.8942 72.2964 34.8936ZM50.6092 29.0861L68.8273 35.9082L50.6091 42.7297L32.3905 35.9082L50.6092 29.0861ZM29.5588 64.8573C26.0342 64.8573 23.1667 61.9898 23.1667 58.4652C23.1667 54.9407 26.0342 52.0732 29.5588 52.0732C33.0838 52.0732 35.9514 54.9408 35.9514 58.4652C35.9514 61.9898 33.0838 64.8573 29.5588 64.8573ZM30.3845 49.947V37.4708L49.5254 44.6378V64.5514L37.8655 60.527C38.0296 59.8662 38.1182 59.1759 38.1182 58.4651C38.1181 54.0243 34.7179 50.3637 30.3845 49.947ZM70.8333 57.9447L51.6925 64.5514V44.6378L70.8333 37.4708V57.9447Z" fill="#0F311D"/>
<path d="M34.2462 54.9421C33.8097 54.5336 33.1227 54.5548 32.7149 54.9924L28.3746 59.6266L26.3904 57.5806C25.9741 57.1521 25.2885 57.1405 24.8584 57.5573C24.4289 57.9736 24.4183 58.6597 24.8353 59.0892L27.6108 61.9516C28.218 62.5622 28.9703 62.2014 29.1791 61.9378L34.2964 56.4735C34.7054 56.0364 34.6826 55.351 34.2462 54.9421Z" fill="#0F311D"/>
</g>
<defs>
<clipPath id="clip0_105_1268">
<rect width="52" height="52" fill="white" transform="translate(21 21)"/>
</clipPath>
</defs>
</svg>
