<svg width="41" height="41" viewBox="0 0 41 41" fill="none" xmlns="http://www.w3.org/2000/svg">
<path d="M11.8188 35.4555H20.2606" stroke="#51842A" stroke-width="2.53253" stroke-linecap="round" stroke-linejoin="round"/>
<path d="M16.8838 13.5073H23.6372" stroke="#51842A" stroke-width="2.53253" stroke-linecap="round" stroke-linejoin="round"/>
<path d="M11.8188 25.3256H20.2606" stroke="#51842A" stroke-width="2.53253" stroke-linecap="round" stroke-linejoin="round"/>
<path d="M11.8188 30.3911H20.2606" stroke="#51842A" stroke-width="2.53253" stroke-linecap="round" stroke-linejoin="round"/>
<path d="M28.7024 20.2607H11.8188V35.4559" stroke="#51842A" stroke-width="2.53253" stroke-linecap="round" stroke-linejoin="round"/>
<path d="M20.2606 35.4557H5.06543V13.3197C5.06543 12.0939 5.73064 10.9627 6.80275 10.3684L18.6212 3.80242C19.641 3.23513 20.8819 3.23513 21.9017 3.80242L33.7202 10.3684C34.7906 10.9627 35.4558 12.0939 35.4558 13.3197V20.2605" stroke="#51842A" stroke-width="2.53253" stroke-linecap="round" stroke-linejoin="round"/>
<path fill-rule="evenodd" clip-rule="evenodd" d="M27.014 25.3252H35.4558C36.3878 25.3252 37.1442 26.0816 37.1442 27.0135V35.4553C37.1442 36.3873 36.3878 37.1437 35.4558 37.1437H27.014C26.0821 37.1437 25.3257 36.3873 25.3257 35.4553V27.0135C25.3257 26.0816 26.0821 25.3252 27.014 25.3252Z" stroke="#51842A" stroke-width="2.53253" stroke-linecap="round" stroke-linejoin="round"/>
<path d="M32.2139 30.3911H30.2554" stroke="#51842A" stroke-width="2.53253" stroke-linecap="round" stroke-linejoin="round"/>
</svg>
