<svg width="19" height="24" viewBox="0 0 19 24" fill="none" xmlns="http://www.w3.org/2000/svg">
<path d="M18.6667 5.28381V20.4178C18.6667 22.0287 17.3608 23.3345 15.75 23.3345H2.91667C1.30584 23.3345 0 22.0287 0 20.4178V2.91784C0 1.30701 1.30584 0.00116944 2.91667 0.00116944H13.384C13.5389 -0.00865328 13.7001 0.0429823 13.8291 0.172024L18.4958 4.83869C18.6249 4.96773 18.6765 5.12894 18.6667 5.28381ZM12.8333 1.16784H2.91667C1.95017 1.16784 1.16667 1.95134 1.16667 2.91784V20.4178C1.16667 21.3843 1.95017 22.1678 2.91667 22.1678H15.75C16.7165 22.1678 17.5 21.3843 17.5 20.4178V5.8345H13.4167C13.0945 5.8345 12.8333 5.57334 12.8333 5.25117V1.16784ZM14 1.99279V4.66784H16.675L14 1.99279ZM5.25 9.33333C4.92783 9.33333 4.66667 9.07217 4.66667 8.75C4.66667 8.42783 4.92783 8.16667 5.25 8.16667H13.4167C13.7388 8.16667 14 8.42783 14 8.75C14 9.07217 13.7388 9.33333 13.4167 9.33333H5.25ZM5.25 12.8333C4.92783 12.8333 4.66667 12.5722 4.66667 12.25C4.66667 11.9278 4.92783 11.6667 5.25 11.6667H13.4167C13.7388 11.6667 14 11.9278 14 12.25C14 12.5722 13.7388 12.8333 13.4167 12.8333H5.25ZM5.25 16.3333C4.92783 16.3333 4.66667 16.0722 4.66667 15.75C4.66667 15.4278 4.92783 15.1667 5.25 15.1667H11.0833C11.4055 15.1667 11.6667 15.4278 11.6667 15.75C11.6667 16.0722 11.4055 16.3333 11.0833 16.3333H5.25Z" fill="white"/>
</svg>
