<svg width="40" height="40" viewBox="0 0 40 40" fill="none" xmlns="http://www.w3.org/2000/svg">
<path fill-rule="evenodd" clip-rule="evenodd" d="M23.3333 33.3337H31.6667C33.5083 33.3337 35 31.842 35 30.0003V10.0003C35 8.15866 33.5083 6.66699 31.6667 6.66699H8.33333C6.49167 6.66699 5 8.15866 5 10.0003V30.0003C5 31.842 6.49167 33.3337 8.33333 33.3337H16.6667L20 36.667L23.3333 33.3337Z" stroke="#51842A" stroke-width="2.53711" stroke-linecap="round" stroke-linejoin="round"/>
<path fill-rule="evenodd" clip-rule="evenodd" d="M15.1383 26.654H12.835C12.32 26.654 11.9033 26.2373 11.9033 25.7223V18.419C11.9033 17.904 12.32 17.4873 12.835 17.4873H15.1383C15.6533 17.4873 16.07 17.904 16.07 18.489V25.7923C16.07 26.2373 15.6533 26.654 15.1383 26.654V26.654Z" stroke="#51842A" stroke-width="2.53711" stroke-linecap="round" stroke-linejoin="round"/>
<path d="M16.0703 19.4623L19.147 14.4273C20.332 12.489 23.317 13.3273 23.317 15.6006V18.259H24.8003H25.8336C26.5886 18.259 27.2936 18.6373 27.7136 19.269C28.0853 19.8273 28.1936 20.5223 28.0086 21.1673L26.7886 25.4373C26.582 26.1573 25.9236 26.654 25.1753 26.654H19.2036C18.7186 26.654 18.247 26.484 17.8736 26.174L16.0703 24.679" stroke="#51842A" stroke-width="2.53711" stroke-linecap="round" stroke-linejoin="round"/>
</svg>
