<svg width="119" height="87" viewBox="0 0 119 87" fill="none" xmlns="http://www.w3.org/2000/svg">
<path fill-rule="evenodd" clip-rule="evenodd" d="M82.7969 3.81172L115.078 36.0932C118.9 39.915 118.9 46.169 115.078 49.9909L82.7969 82.2721C78.975 86.094 72.721 86.094 68.8991 82.2721L36.6179 49.9909C32.796 46.169 32.796 39.915 36.6179 36.0932L68.8991 3.81172C72.721 -0.0101555 78.975 -0.0101555 82.7969 3.81172Z" fill="#FDFFE9" stroke="#86755E" stroke-width="1.88976" stroke-miterlimit="22.9256"/>
<path fill-rule="evenodd" clip-rule="evenodd" d="M81.1592 3.81172L113.441 36.0932C117.262 39.915 117.262 46.169 113.441 49.9909L81.1592 82.2721C77.3373 86.094 71.0833 86.094 67.2614 82.2721L34.9802 49.9909C31.1583 46.169 31.1583 39.915 34.9802 36.0932L67.2614 3.81172C71.0833 -0.0101555 77.3373 -0.0101555 81.1592 3.81172Z" fill="#FDFFE9" stroke="#86755E" stroke-width="1.88976" stroke-miterlimit="22.9256"/>
<path fill-rule="evenodd" clip-rule="evenodd" d="M51.6282 3.81172L83.9094 36.0932C87.7313 39.915 87.7313 46.169 83.9094 49.9909L51.6282 82.2721C47.8063 86.094 41.5522 86.094 37.7303 82.2721L5.44892 49.9909C1.62705 46.169 1.62705 39.915 5.44892 36.0932L37.7303 3.81172C41.5522 -0.0101555 47.8063 -0.0101555 51.6282 3.81172Z" fill="#FDFFE9" stroke="#86755E" stroke-width="1.88976" stroke-miterlimit="22.9256"/>
<path fill-rule="evenodd" clip-rule="evenodd" d="M49.9905 3.81172L82.2717 36.0932C86.0936 39.915 86.0936 46.169 82.2717 49.9909L49.9905 82.2721C46.1686 86.094 39.9145 86.094 36.0926 82.2721L3.81123 49.9909C-0.0106438 46.169 -0.0106438 39.915 3.81123 36.0932L36.0926 3.81172C39.9145 -0.0101555 46.1686 -0.0101555 49.9905 3.81172Z" fill="#FDFFE9" stroke="#86755E" stroke-width="1.88976" stroke-miterlimit="22.9256"/>
<path fill-rule="evenodd" clip-rule="evenodd" d="M55.9504 49.9489C55.5524 50.0671 54.8412 50.3248 54.0094 50.5639C53.1257 50.8905 52.1364 51.0262 51.1465 50.9579C56.3324 49.4355 59.8349 46.4917 59.8349 43.1196C59.8349 39.644 56.1065 36.6148 50.6805 35.1256C52.2236 34.9037 53.8007 34.8862 55.3781 35.1425C56.2973 35.3483 57.0446 35.5851 57.6495 35.8427C59.4197 36.5975 59.8514 37.4366 59.8514 37.4366L64.9164 33.5319C64.9164 33.5319 59.7825 30.5721 58.0498 30.229C56.2973 29.8875 53.87 29.5443 51.5639 29.6668C49.2582 29.7849 46.3621 30.9147 46.3621 30.9147C46.3621 30.9147 46.3101 30.9483 46.2395 30.9815V28.7751H42.7377H39.5121V30.8799C37.6922 29.6668 35.4726 29.0318 32.8714 29.2875C31.6577 29.3568 30.9807 29.4085 30.4264 29.4939C29.8705 29.5797 29.4199 29.6832 28.6924 29.8527C27.2176 30.1972 25.2753 30.6422 23.5943 31.6677C21.9111 32.7118 21.166 33.4977 21.166 33.4977L26.0214 37.9839C26.0214 37.9839 28.2406 36.3074 29.8549 35.7407C30.253 35.6045 30.9456 35.3125 31.7787 35.0746C33.1486 34.5079 34.7961 34.4234 36.2872 34.8513C30.2704 36.2376 26.0564 39.4049 26.0564 43.1196C26.0564 46.2505 29.073 49.005 33.6517 50.6158C32.715 50.6668 31.7787 50.65 30.8246 50.5129C29.905 50.3411 29.144 50.1193 28.5532 49.8798C26.7505 49.1791 26.2819 48.3397 26.2819 48.3397L21.3394 52.3783C21.3394 52.3783 26.5591 55.202 28.3113 55.4939C30.0431 55.7855 32.4893 56.0753 34.7961 55.8872C36.5475 55.7512 38.611 55.032 39.5121 54.672V57.3089H42.7377H46.2395V54.5863C48.0071 55.8194 50.1952 56.5033 52.7598 56.2973C53.9567 56.2646 54.6335 56.23 55.2058 56.1615C55.7621 56.0942 56.2119 56.0082 56.9573 55.854C58.4296 55.5443 60.3719 55.168 62.089 54.175C63.7882 53.1847 64.5688 52.4142 64.5688 52.4142L59.8349 47.8084C59.8349 47.8084 57.5808 49.4171 55.9504 49.9489ZM43.0413 25.2588H43.0447C53.5206 25.2592 62.8546 27.3117 69.4606 30.6213C75.8298 33.8127 79.7792 38.2076 79.7803 43.0399V43.0419V43.0434C79.7795 47.8764 75.8296 52.2717 69.4598 55.463C62.8542 58.772 53.5218 60.8241 43.0479 60.8249H43.0413H43.038C32.5621 60.8246 23.2278 58.772 16.6217 55.4625C10.2525 52.2713 6.30345 47.8767 6.30225 43.0439V43.0419V43.0404C6.30312 38.2075 10.253 33.8121 16.6228 30.6209C23.2284 27.3117 32.5609 25.2597 43.0348 25.2588H43.0413ZM43.0447 26.1574H43.0413H43.0348C34.458 26.158 26.4949 27.9994 20.5678 30.9688C14.4043 34.0565 10.5822 38.3277 10.5815 43.0404V43.0419V43.0439C10.5824 47.7563 14.4038 52.0269 20.5668 55.1146C26.4942 58.0843 34.4593 59.9262 43.038 59.9263H43.0413H43.0479C51.6247 59.9256 59.5877 58.0844 65.5147 55.1152C71.6783 52.0273 75.5004 47.7562 75.501 43.0434V43.0419V43.0399C75.5002 38.328 71.6785 34.057 65.5156 30.9692C59.5881 27.9995 51.6234 26.1576 43.0447 26.1574ZM53.1929 43.2739C53.1929 45.7363 50.2817 47.8268 46.2395 48.5787V37.9486C50.2817 38.7045 53.1929 40.809 53.1929 43.2739ZM39.5121 37.9486V48.5962C35.4546 47.8268 32.5245 45.7363 32.5245 43.2739C32.5245 40.7897 35.4546 38.7045 39.5121 37.9486Z" fill="#005844"/>
</svg>
