<svg width="16" height="16" viewBox="0 0 16 16" fill="none" xmlns="http://www.w3.org/2000/svg">
<path fill-rule="evenodd" clip-rule="evenodd" d="M8 0C12.4183 3.43604e-07 16 3.58172 16 8C16 12.4183 12.4183 16 8 16C3.58172 16 3.43615e-07 12.4183 0 8C0 3.58172 3.58172 0 8 0ZM11.2702 4.81576C10.9693 4.82111 10.5071 4.98233 8.28581 5.90625C7.50757 6.22995 5.95224 6.89944 3.62044 7.91536C3.24192 8.06591 3.04352 8.21341 3.02539 8.35742C2.99072 8.63397 3.38904 8.71999 3.88997 8.88281C4.29836 9.01556 4.84778 9.17086 5.13346 9.17708C5.39257 9.18268 5.68203 9.07601 6.0013 8.85677C8.18023 7.38594 9.30503 6.64233 9.37565 6.6263C9.42542 6.61501 9.49426 6.60117 9.54102 6.64258C9.58765 6.68402 9.58371 6.76244 9.57878 6.78385C9.53918 6.95265 7.49442 8.81246 7.37435 8.93685C6.92424 9.40435 6.41216 9.69049 7.20182 10.2109C7.88519 10.6613 8.28304 10.9487 8.98698 11.4102C9.43694 11.7051 9.78998 12.0551 10.2546 12.0124C10.4683 11.9927 10.6893 11.7915 10.8014 11.1921C11.0665 9.77519 11.5873 6.70574 11.7077 5.44076C11.7182 5.32993 11.7047 5.18792 11.694 5.12565C11.6833 5.06339 11.661 4.97449 11.5801 4.90885C11.4842 4.83126 11.3363 4.81459 11.2702 4.81576Z" fill="white"/>
</svg>
