<svg width="16" height="16" viewBox="0 0 16 16" fill="none" xmlns="http://www.w3.org/2000/svg">
<path fill-rule="evenodd" clip-rule="evenodd" d="M8.32031 0C11.9405 9.35855e-10 13.7503 0.00032711 14.875 1.125C15.9997 2.24968 16 4.0595 16 7.67969V8.32031C16 11.9405 15.9997 13.7503 14.875 14.875C13.7503 15.9997 11.9405 16 8.32031 16H7.67969C4.0595 16 2.24968 15.9997 1.125 14.875C0.00032711 13.7503 9.35859e-10 11.9405 0 8.32031V7.67969C9.30167e-10 4.0595 0.000322421 2.24968 1.125 1.125C2.24968 0.000322421 4.0595 9.30172e-10 7.67969 0H8.32031ZM2.69987 4.86654C2.78653 9.02642 4.86655 11.5266 8.51302 11.5267H8.72005V9.14648C10.06 9.27982 11.0731 10.26 11.4798 11.5267H13.373C12.8531 9.63356 11.4868 8.58691 10.6335 8.18685C11.4868 7.69349 12.6866 6.49317 12.9733 4.86654H11.2533C10.8799 6.18654 9.77339 7.38667 8.72005 7.5V4.86654H7V9.47982C5.93334 9.21312 4.58669 7.91982 4.52669 4.86654H2.69987Z" fill="white"/>
</svg>
